<svg xmlns="http://www.w3.org/2000/svg" viewBox="0 0 182.46 47.44"><defs><style>.cls-1{fill:#fff;}</style></defs><title>Asset 1</title><g id="Layer_2" data-name="Layer 2"><g id="Layer_1-2" data-name="Layer 1"><polygon class="cls-1" points="0 0.22 4.84 0.22 4.84 1.86 3.23 1.86 3.23 8.98 1.56 8.98 1.56 1.86 0 1.86 0 0.22"/><polygon class="cls-1" points="6 0.22 7.68 0.22 7.68 3.52 10.63 3.52 10.63 0.22 12.3 0.22 12.3 8.98 10.63 8.98 10.63 5.15 7.68 5.15 7.68 8.98 6 8.98 6 0.22"/><polygon class="cls-1" points="14.3 0.22 19.08 0.22 19.08 1.86 15.97 1.86 15.97 3.42 19.08 3.42 19.08 5.06 15.97 5.06 15.97 7.35 19.08 7.35 19.08 8.98 14.3 8.98 14.3 0.22"/><path class="cls-1" d="M32.07,7.52A4.91,4.91,0,0,1,28.26,9.2a4.43,4.43,0,0,1-4.63-4.61A4.52,4.52,0,0,1,28.29,0a5,5,0,0,1,3.82,1.76L30.94,2.88A3.59,3.59,0,0,0,28.25,1.6a3,3,0,0,0-3,3,2.9,2.9,0,0,0,3,3,3.51,3.51,0,0,0,2.65-1.27Z"/><polygon class="cls-1" points="32.95 0.22 34.74 0.22 36.38 3.36 37.99 0.22 39.77 0.22 37.21 5.19 37.21 8.98 35.54 8.98 35.54 5.19 32.95 0.22"/><polygon class="cls-1" points="41.14 0.22 42.74 0.22 46.5 5.98 46.5 0.22 48.17 0.22 48.17 8.98 46.56 8.98 42.81 3.24 42.81 8.98 41.14 8.98 41.14 0.22"/><polygon class="cls-1" points="49.3 0.22 54.15 0.22 54.15 1.86 52.54 1.86 52.54 8.98 50.87 8.98 50.87 1.86 49.3 1.86 49.3 0.22"/><polygon class="cls-1" points="55.31 0.22 56.98 0.22 56.98 3.52 59.93 3.52 59.93 0.22 61.6 0.22 61.6 8.98 59.93 8.98 59.93 5.15 56.98 5.15 56.98 8.98 55.31 8.98 55.31 0.22"/><rect class="cls-1" x="63.47" y="0.22" width="1.67" height="8.76"/><path class="cls-1" d="M69.68.22h1.68L74.75,9H73l-.68-1.81H68.75L68,9H66.3Zm.85,2.32-1.16,3h2.32Z"/><polygon class="cls-1" points="78.78 0.22 80.44 0.22 81.69 5.81 83.26 0.22 84.65 0.22 86.24 5.81 87.49 0.22 89.14 0.22 87.16 8.98 85.56 8.98 83.94 3.32 82.36 8.98 80.77 8.98 78.78 0.22"/><path class="cls-1" d="M99.13,4.63a4.56,4.56,0,1,1-9.12,0,4.56,4.56,0,1,1,9.12,0m-7.43,0a2.88,2.88,0,1,0,5.75,0,2.93,2.93,0,0,0-2.88-3,2.87,2.87,0,0,0-2.87,3"/><path class="cls-1" d="M109.38,4.63a4.56,4.56,0,1,1-9.11,0,4.56,4.56,0,1,1,9.11,0m-7.43,0a2.87,2.87,0,1,0,5.75,0,2.93,2.93,0,0,0-2.88-3,2.87,2.87,0,0,0-2.87,3"/><path class="cls-1" d="M111,.22h2.11a4.6,4.6,0,0,1,3.58,1.11,4.67,4.67,0,0,1,1.27,3.38,4.3,4.3,0,0,1-1.5,3.48,4.86,4.86,0,0,1-3.32.79H111Zm1.67,1.63V7.35h.88a2.56,2.56,0,0,0,2.08-.67,3,3,0,0,0,.65-2c0-1.83-1-2.82-2.92-2.82Z"/><path class="cls-1" d="M120.13,6.46c.4.76.87,1.15,1.45,1.15a.93.93,0,0,0,1-.82,1.37,1.37,0,0,0-.56-1c-1.82-1.53-2.89-2.35-2.89-3.6A2.3,2.3,0,0,1,121.54,0a3.26,3.26,0,0,1,2.54,1.4l-1.24,1.1a1.71,1.71,0,0,0-1.32-.9c-.44,0-.75.25-.75.61s.26.56.52.78c1.63,1.44,2.94,2.12,2.94,3.72a2.48,2.48,0,0,1-2.69,2.49,3,3,0,0,1-2.82-1.9Z"/><polygon class="cls-1" points="130.09 0.22 131.72 0.22 133.75 6.33 135.8 0.22 137.41 0.22 138.88 8.98 137.28 8.98 136.33 3.44 134.47 8.98 133 8.98 131.16 3.44 130.2 8.98 128.58 8.98 130.09 0.22"/><rect class="cls-1" x="140.11" y="0.22" width="1.67" height="8.76"/><polygon class="cls-1" points="142.78 0.22 147.62 0.22 147.62 1.86 146.01 1.86 146.01 8.98 144.34 8.98 144.34 1.86 142.78 1.86 142.78 0.22"/><path class="cls-1" d="M156.79,7.52A4.93,4.93,0,0,1,153,9.2a4.42,4.42,0,0,1-4.63-4.61A4.52,4.52,0,0,1,153,0a5,5,0,0,1,3.82,1.76l-1.17,1.12A3.58,3.58,0,0,0,153,1.6a3,3,0,0,0-3,3,2.9,2.9,0,0,0,3,3,3.51,3.51,0,0,0,2.65-1.27Z"/><polygon class="cls-1" points="158.3 0.22 159.98 0.22 159.98 3.52 162.93 3.52 162.93 0.22 164.6 0.22 164.6 8.98 162.93 8.98 162.93 5.15 159.98 5.15 159.98 8.98 158.3 8.98 158.3 0.22"/><polygon class="cls-1" points="166.6 0.22 171.39 0.22 171.39 1.86 168.27 1.86 168.27 3.42 171.39 3.42 171.39 5.06 168.27 5.06 168.27 7.35 171.39 7.35 171.39 8.98 166.6 8.98 166.6 0.22"/><polygon class="cls-1" points="172.94 0.22 174.61 0.22 174.61 7.4 177.04 7.4 177.04 8.98 172.94 8.98 172.94 0.22"/><polygon class="cls-1" points="178.31 0.22 179.98 0.22 179.98 7.4 182.41 7.4 182.41 8.98 178.31 8.98 178.31 0.22"/><path class="cls-1" d="M0,15.43H7.31c4,0,6.88.61,8.84,2.53a9.17,9.17,0,0,1,2.52,6.53,8.15,8.15,0,0,1-4,7.4C12.05,33.51,9.27,33.46,6,33.46V46.7H0ZM6,27.67H8.79c2.7,0,4-1,4-3.18s-1.48-3.22-4.31-3.22H6Z"/><path class="cls-1" d="M29.65,15.43h6L47.72,46.7H41.54L39.1,40.25H26.34L23.77,46.7H17.59Zm3,8.28L28.56,34.42h8.27Z"/><polygon class="cls-1" points="44.41 15.43 50.55 15.43 58.38 37.64 66.39 15.43 72.49 15.43 61.22 46.7 55.51 46.7 44.41 15.43"/><rect class="cls-1" x="76.84" y="15.43" width="5.96" height="31.26"/><polygon class="cls-1" points="89.47 15.43 95.43 15.43 95.43 41.04 104.1 41.04 104.1 46.7 89.47 46.7 89.47 15.43"/><rect class="cls-1" x="108.19" y="15.43" width="5.97" height="31.26"/><path class="cls-1" d="M151.82,31.15A16.26,16.26,0,1,1,119.29,31a16.26,16.26,0,1,1,32.53.13m-26.52,0a10.26,10.26,0,1,0,20.51,0,10.46,10.46,0,0,0-10.28-10.75c-5.62,0-10.23,4.35-10.23,10.8"/><polygon class="cls-1" points="157.39 15.43 163.09 15.43 176.5 35.98 176.5 15.43 182.47 15.43 182.47 46.7 176.72 46.7 163.35 26.19 163.35 46.7 157.39 46.7 157.39 15.43"/></g></g></svg>