<svg id="Layer_1" data-name="Layer 1" xmlns="http://www.w3.org/2000/svg" viewBox="0 0 381.05 108.4"><defs><style>.cls-1{fill:#fff;}</style></defs><title>White-Horizontal-SVG</title><path class="cls-1" d="M196.24,103.62c-.84-.58-6-3.22-9.21-3.12-.71,0-1.69-3.67-2.13-5-.58-1.75-1.29-3.52-2-5.42-.19-.51-1.29-.44-1.61,0a33.55,33.55,0,0,0-4.5,7.1c-.89,2-6.84.65-8.63.63-.15,0-1.09.12-.82.5,1.4,2,2.94,3.84,5.3,4.58,1.24.39-3.49,9.9-4.07,11-.27.55,1.35.75,1.6.26l.16-.34c.41.13,1.06.13,1.27-.13,2.16-2.67,4.64-5.33,8.52-3.56a15.82,15.82,0,0,1,3.64,2.83,82.1,82.1,0,0,1,5.9,6.8c.24.29,1.54.39,1.56-.17a27,27,0,0,0-1-8.87c-.78-2.51-.06-2.65,2-3.7a16,16,0,0,0,4.1-2.91c.18-.18.09-.36-.12-.5" transform="translate(-39.92 -89.74)"/><polygon class="cls-1" points="198.28 36.02 203.12 36.02 203.12 37.65 201.51 37.65 201.51 44.78 199.84 44.78 199.84 37.65 198.28 37.65 198.28 36.02"/><polygon class="cls-1" points="204.28 36.02 205.95 36.02 205.95 39.31 208.9 39.31 208.9 36.02 210.57 36.02 210.57 44.78 208.9 44.78 208.9 40.95 205.95 40.95 205.95 44.78 204.28 44.78 204.28 36.02"/><polygon class="cls-1" points="212.58 36.02 217.36 36.02 217.36 37.65 214.25 37.65 214.25 39.21 217.36 39.21 217.36 40.85 214.25 40.85 214.25 43.14 217.36 43.14 217.36 44.78 212.58 44.78 212.58 36.02"/><path class="cls-1" d="M270.26,133.05a4.91,4.91,0,0,1-3.81,1.68,4.43,4.43,0,0,1-4.63-4.61,4.52,4.52,0,0,1,4.66-4.59,5,5,0,0,1,3.82,1.76l-1.17,1.12a3.59,3.59,0,0,0-2.68-1.28,3,3,0,0,0-3,3,2.9,2.9,0,0,0,3,3,3.51,3.51,0,0,0,2.65-1.27Z" transform="translate(-39.92 -89.74)"/><polygon class="cls-1" points="231.23 36.02 233.02 36.02 234.65 39.15 236.26 36.02 238.05 36.02 235.49 40.98 235.49 44.78 233.81 44.78 233.81 40.98 231.23 36.02"/><polygon class="cls-1" points="239.41 36.02 241.01 36.02 244.77 41.77 244.77 36.02 246.44 36.02 246.44 44.78 244.83 44.78 241.08 39.03 241.08 44.78 239.41 44.78 239.41 36.02"/><polygon class="cls-1" points="247.58 36.02 252.42 36.02 252.42 37.65 250.81 37.65 250.81 44.78 249.14 44.78 249.14 37.65 247.58 37.65 247.58 36.02"/><polygon class="cls-1" points="253.58 36.02 255.26 36.02 255.26 39.31 258.21 39.31 258.21 36.02 259.88 36.02 259.88 44.78 258.21 44.78 258.21 40.95 255.26 40.95 255.26 44.78 253.58 44.78 253.58 36.02"/><rect class="cls-1" x="261.75" y="36.02" width="1.67" height="8.76"/><path class="cls-1" d="M307.88,125.76h1.68l3.38,8.76h-1.74l-.68-1.81h-3.57l-.72,1.81H304.5Zm.85,2.32-1.16,3h2.32Z" transform="translate(-39.92 -89.74)"/><polygon class="cls-1" points="277.06 36.02 278.71 36.02 279.97 41.6 281.54 36.02 282.93 36.02 284.52 41.6 285.76 36.02 287.41 36.02 285.43 44.78 283.83 44.78 282.21 39.11 280.64 44.78 279.05 44.78 277.06 36.02"/><path class="cls-1" d="M337.32,130.16a4.56,4.56,0,1,1-9.12,0,4.56,4.56,0,1,1,9.12,0m-7.43,0a2.88,2.88,0,1,0,5.75,0,2.93,2.93,0,0,0-2.88-3,2.87,2.87,0,0,0-2.87,3" transform="translate(-39.92 -89.74)"/><path class="cls-1" d="M347.57,130.16a4.56,4.56,0,1,1-9.11,0,4.56,4.56,0,1,1,9.11,0m-7.43,0a2.87,2.87,0,1,0,5.75,0,2.93,2.93,0,0,0-2.88-3,2.87,2.87,0,0,0-2.87,3" transform="translate(-39.92 -89.74)"/><path class="cls-1" d="M349.15,125.76h2.11a4.6,4.6,0,0,1,3.58,1.11,4.67,4.67,0,0,1,1.27,3.38,4.3,4.3,0,0,1-1.5,3.48,4.86,4.86,0,0,1-3.32.79h-2.14Zm1.67,1.63v5.49h.88a2.56,2.56,0,0,0,2.08-.67,3,3,0,0,0,.65-2c0-1.83-1-2.82-2.92-2.82Z" transform="translate(-39.92 -89.74)"/><path class="cls-1" d="M358.33,132c.4.76.87,1.15,1.45,1.15a.93.93,0,0,0,1-.82,1.37,1.37,0,0,0-.56-1c-1.82-1.53-2.89-2.35-2.89-3.6a2.3,2.3,0,0,1,2.4-2.21,3.26,3.26,0,0,1,2.54,1.4L361,128a1.71,1.71,0,0,0-1.32-.9c-.44,0-.75.25-.75.61s.26.56.52.78c1.63,1.44,2.94,2.12,2.94,3.72a2.48,2.48,0,0,1-2.69,2.49,3,3,0,0,1-2.82-1.9Z" transform="translate(-39.92 -89.74)"/><polygon class="cls-1" points="328.36 36.02 330 36.02 332.02 42.13 334.08 36.02 335.69 36.02 337.16 44.78 335.56 44.78 334.61 39.24 332.74 44.78 331.28 44.78 329.44 39.24 328.48 44.78 326.86 44.78 328.36 36.02"/><rect class="cls-1" x="338.39" y="36.02" width="1.67" height="8.76"/><polygon class="cls-1" points="341.06 36.02 345.9 36.02 345.9 37.65 344.29 37.65 344.29 44.78 342.62 44.78 342.62 37.65 341.06 37.65 341.06 36.02"/><path class="cls-1" d="M395,133.05a4.93,4.93,0,0,1-3.81,1.68,4.42,4.42,0,0,1-4.63-4.61,4.52,4.52,0,0,1,4.66-4.59,5,5,0,0,1,3.82,1.76l-1.17,1.12a3.58,3.58,0,0,0-2.68-1.28,3,3,0,0,0-3,3,2.9,2.9,0,0,0,3,3,3.51,3.51,0,0,0,2.65-1.27Z" transform="translate(-39.92 -89.74)"/><polygon class="cls-1" points="356.58 36.02 358.26 36.02 358.26 39.31 361.2 39.31 361.2 36.02 362.88 36.02 362.88 44.78 361.2 44.78 361.2 40.95 358.26 40.95 358.26 44.78 356.58 44.78 356.58 36.02"/><polygon class="cls-1" points="364.88 36.02 369.66 36.02 369.66 37.65 366.55 37.65 366.55 39.21 369.66 39.21 369.66 40.85 366.55 40.85 366.55 43.14 369.66 43.14 369.66 44.78 364.88 44.78 364.88 36.02"/><polygon class="cls-1" points="371.21 36.02 372.88 36.02 372.88 43.19 375.32 43.19 375.32 44.78 371.21 44.78 371.21 36.02"/><polygon class="cls-1" points="376.58 36.02 378.26 36.02 378.26 43.19 380.68 43.19 380.68 44.78 376.58 44.78 376.58 36.02"/><path class="cls-1" d="M238.23,141h7.27c4,0,6.88.61,8.84,2.53a9.17,9.17,0,0,1,2.52,6.53,8.15,8.15,0,0,1-4,7.4c-2.66,1.61-5.44,1.57-8.71,1.57v13.24h-6Zm6,12.24H247c2.7,0,4-1,4-3.18s-1.48-3.22-4.31-3.22H244.2Z" transform="translate(-39.92 -89.74)"/><path class="cls-1" d="M267.84,141h6l12.06,31.26h-6.19l-2.44-6.44H264.53L262,172.23h-6.18Zm3,8.28L266.76,160H275Z" transform="translate(-39.92 -89.74)"/><polygon class="cls-1" points="242.69 51.23 248.83 51.23 256.66 73.44 264.67 51.23 270.77 51.23 259.49 82.49 253.79 82.49 242.69 51.23"/><rect class="cls-1" x="275.12" y="51.23" width="5.96" height="31.26"/><polygon class="cls-1" points="287.75 51.23 293.71 51.23 293.71 76.83 302.38 76.83 302.38 82.49 287.75 82.49 287.75 51.23"/><rect class="cls-1" x="306.47" y="51.23" width="5.97" height="31.26"/><path class="cls-1" d="M390,156.69a16.26,16.26,0,1,1-32.53-.13,16.26,16.26,0,1,1,32.53.13m-26.52,0a10.26,10.26,0,1,0,20.51,0,10.46,10.46,0,0,0-10.28-10.75c-5.62,0-10.23,4.35-10.23,10.8" transform="translate(-39.92 -89.74)"/><polygon class="cls-1" points="355.66 51.23 361.37 51.23 374.77 71.78 374.77 51.23 380.74 51.23 380.74 82.49 375 82.49 361.63 61.98 361.63 82.49 355.66 82.49 355.66 51.23"/><rect class="cls-1" x="288.09" y="106.26" width="92.96" height="2.14"/><rect class="cls-1" x="288.09" y="89.48" width="92.96" height="2.14"/><polygon class="cls-1" points="294.91 93.77 294.91 97.55 291.3 97.55 291.3 93.77 288.09 93.77 288.09 104.11 291.3 104.11 291.3 100.17 294.91 100.17 294.91 104.11 298.12 104.11 298.12 93.77 294.91 93.77"/><path class="cls-1" d="M345.79,183.51v6.67c0,1-.3,1.13-1.56,1.13s-1.83,0-1.83-1v-6.79h-3.21v6.85c0,2.48.47,3.58,5,3.58,3,0,4.77-.58,4.77-3.58v-6.85Z" transform="translate(-39.92 -89.74)"/><path class="cls-1" d="M358.29,183.51s.16,6.8.17,7.49l-3.09-7.49h-5.2v10.34h3.21s-.16-6.79-.17-7.48l3,7.48h5.25V183.51Z" transform="translate(-39.92 -89.74)"/><polygon class="cls-1" points="322.51 93.77 322.51 96.4 325.35 96.4 325.35 104.11 328.56 104.11 328.56 96.4 331.55 96.4 331.55 93.77 322.51 93.77"/><path class="cls-1" d="M372,186.65c0,2.91,1.56,3,4.15,3.17l1.06.07c1.33.08,1.33.09,1.33.79s-.26.77-1.73.77-1.74-.13-1.74-1v-.15H372v.15c0,3.5,2.13,3.5,4.83,3.5,2.34,0,3.73-.37,4.4-1.15a3.23,3.23,0,0,0,.53-2.22v-.07c0-2.42-.9-2.82-4.21-3l-1.23-.08c-.85-.06-1.1-.1-1.1-.74,0-.41,0-.71,1.6-.71,1.24,0,1.53,0,1.53.88V187h3.09v-.56c0-3-2.24-3-4.62-3-3,0-4.81.22-4.81,3.22" transform="translate(-39.92 -89.74)"/><path class="cls-1" d="M391.63,183.51l-2,6.2-2.08-6.2h-4.9v10.34h3.21s-.25-6.4-.28-7.32l2.7,7.32H391l2.69-7.36c0,.86-.28,7.36-.28,7.36h3.21V183.51Z" transform="translate(-39.92 -89.74)"/><path class="cls-1" d="M405.46,183.51h-4.67l-3.43,10.34h3.35l.55-1.73h3.8l.58,1.73h3.29Zm-3.83,6.66,1.44-4.65h.2l1.47,4.65Z" transform="translate(-39.92 -89.74)"/><path class="cls-1" d="M417.76,183.51s.15,6.8.17,7.49l-3.09-7.49h-5.2v10.34h3.21s-.16-6.79-.17-7.48l3,7.48H421V183.51Z" transform="translate(-39.92 -89.74)"/><path class="cls-1" d="M238.58,184.66h2.33a3.69,3.69,0,0,1,2.71.74,3,3,0,0,1,0,4.25,3.69,3.69,0,0,1-2.71.74h-.61v3.52h-1.71Zm1.71,4.12h.55c.74,0,1.94,0,1.94-1.26s-1.17-1.26-1.87-1.26h-.61Z" transform="translate(-39.92 -89.74)"/><path class="cls-1" d="M245.48,184.66h2.84a3.33,3.33,0,0,1,2.25.63,2.86,2.86,0,0,1,1.09,2.24,3.22,3.22,0,0,1-.89,2.21,3,3,0,0,1-1.54.76l2.51,3.41h-2.07l-2.45-3.54h0v3.54h-1.71Zm1.71,4.42h1.1c1.41,0,1.65-.94,1.65-1.42s-.31-1.4-1.65-1.4h-1.1Z" transform="translate(-39.92 -89.74)"/><polygon class="cls-1" points="212.77 94.92 217.75 94.92 217.75 96.52 214.48 96.52 214.48 98.79 217.61 98.79 217.61 100.39 214.48 100.39 214.48 102.57 217.75 102.57 217.75 104.17 212.77 104.17 212.77 94.92"/><path class="cls-1" d="M260.38,191.26a1.25,1.25,0,0,0,2.5.08c0-1-.61-1.12-1.76-1.56a2.7,2.7,0,0,1-2.2-2.66,2.62,2.62,0,0,1,2.71-2.64,2.72,2.72,0,0,1,2.74,2.64h-1.75a1,1,0,0,0-1-1,.92.92,0,0,0-1,.94c0,.8.6,1,1.54,1.29a3,3,0,0,1,2.42,2.85,2.87,2.87,0,0,1-3,2.95,3,3,0,0,1-3-2.84Z" transform="translate(-39.92 -89.74)"/><polygon class="cls-1" points="225.77 94.92 230.75 94.92 230.75 96.52 227.48 96.52 227.48 98.79 230.61 98.79 230.61 100.39 227.48 100.39 227.48 102.57 230.75 102.57 230.75 104.17 225.77 104.17 225.77 94.92"/><polygon class="cls-1" points="232.38 94.92 234.33 94.92 238.16 101.65 238.18 101.65 238.18 94.92 239.89 94.92 239.89 104.17 237.98 104.17 234.12 97.45 234.1 97.45 234.1 104.17 232.38 104.17 232.38 94.92"/><polygon class="cls-1" points="242.55 96.52 240.83 96.52 240.83 94.92 245.98 94.92 245.98 96.52 244.26 96.52 244.26 104.17 242.55 104.17 242.55 96.52"/><polygon class="cls-1" points="246.77 94.92 251.75 94.92 251.75 96.52 248.48 96.52 248.48 98.79 251.61 98.79 251.61 100.39 248.48 100.39 248.48 102.57 251.75 102.57 251.75 104.17 246.77 104.17 246.77 94.92"/><path class="cls-1" d="M293.21,184.66h2.1c2.27,0,3.26.61,3.8,1.08a4.85,4.85,0,0,1,1.53,3.57,4.58,4.58,0,0,1-2.21,4,6.61,6.61,0,0,1-3.08.6h-2.14Zm1.71,7.65h.36a4.26,4.26,0,0,0,2.25-.45,2.91,2.91,0,0,0,1.39-2.55,3.05,3.05,0,0,0-1-2.27,3.72,3.72,0,0,0-2.69-.78h-.33Z" transform="translate(-39.92 -89.74)"/><path class="cls-1" d="M305.55,184.66h1.82a4,4,0,0,1,2.85.71,2.43,2.43,0,0,1,.79,1.72,1.88,1.88,0,0,1-1,1.76,2.23,2.23,0,0,1,1.59,2.3,2.61,2.61,0,0,1-1.15,2.2,4.49,4.49,0,0,1-2.39.55h-2.47Zm1.71,3.6h.56c.4,0,1.47,0,1.47-1,0-.55-.35-1-1.33-1h-.71Zm0,4h.86c.34,0,1.72,0,1.72-1.21,0-.37-.19-1.24-1.69-1.24h-.9Z" transform="translate(-39.92 -89.74)"/><polygon class="cls-1" points="275.02 100.76 271.98 94.92 273.86 94.92 275.87 99.17 277.89 94.92 279.78 94.92 276.73 100.76 276.73 104.17 275.02 104.17 275.02 100.76"/><path class="cls-1" d="M225.17,189.49H43.48v-20h1.21c0,5.9,39.34,12.53,92,12.57,52.2,0,87.27-6.53,87.27-12.57h1.21Z" transform="translate(-39.92 -89.74)"/><path class="cls-1" d="M225,152.89c-13.72-2.95-28.8-10.51-33.77-24.2a35.78,35.78,0,0,1-21.8,10.72A49.33,49.33,0,0,0,184,142.57c.75.07.08.74-.4.73-20.74-.24-37.41-16.43-47.86-33-10.58,16.47-28.62,32.07-49.29,32.31-.76,0-.8-1-.21-1a57.33,57.33,0,0,0,12.16-2.09c-4.92-.06-11.58-2.92-11.58-2.92a50.26,50.26,0,0,1-7.56-5.24,27.09,27.09,0,0,1-2-2c-5.4,13.38-20.62,20.37-33.86,23.7-1.33.24-2.43.43-3.18.54s.5.21.5.21,8.83.5,20.15,1.44a31.29,31.29,0,0,1,11.93,4.11v14.8h2.43V159.34a22.66,22.66,0,0,1,15-4.15c1,.07,1.94.16,2.8.26v20.23h3.65V156a16.68,16.68,0,0,1,4.23,1.34h-.05v16.75h2.43V157.71c4.42-1.71,20.2-7.46,32.7-7.46,12,0,26.46,5.69,31.34,7.77v16.15h2.43V158.47c.67-.27,1.79-.69,3.2-1.13v18.34h3.65V156.38a33.62,33.62,0,0,1,7.14-.84c5.07,0,11.16,2.15,14.65,3.58h0v15h2.39v-14a95.67,95.67,0,0,1,13.23-4.6,90.23,90.23,0,0,1,14.43-2.06S226.21,153.15,225,152.89Z" transform="translate(-39.92 -89.74)"/><path class="cls-1" d="M104,125.36l0,0c-3.57,5.49-8.4,7.67-14.41,10.2a34.82,34.82,0,0,0,11.31,3,.3.3,0,0,1,.13,0A49.42,49.42,0,0,0,111.43,133c-1.15-.86-3.25-2.38-4.2-3.28A40.6,40.6,0,0,1,104,125.36Z" transform="translate(-39.92 -89.74)"/><path class="cls-1" d="M173.2,130.34a43,43,0,0,1-5.56-6c-2.11,3.63-5.84,6-9.24,8.42a52.44,52.44,0,0,0,9.73,5.67,35.18,35.18,0,0,0,12.34-3.86A30.14,30.14,0,0,1,173.2,130.34Z" transform="translate(-39.92 -89.74)"/></svg>